#!OML:ASF E:\Steps\Project 1\Capture day 1\Session 2\Subject.ASF
:FULLY-SPECIFIED
:DEGREES
96
root 8.94452 16.3493 30.7329 -153.028 -2.99196 179.198
lowerback -29.2375 -1.42537 -5.84578
upperback -1.58373 -0.579907 -0.384468
thorax 13.6884 -0.892206 2.47238
lowerneck 3.75275 -5.04892 5.81955
upperneck -6.13702 -6.81775 -4.84777
head -3.06398 -3.41149 -2.33819
rclavicle -1.80894e-014 3.97569e-015
rhumerus -36.9939 -27.6157 -75.09
rradius 25.9998
rwrist 6.63312
rhand -9.64787 -52.9563
rfingers 7.12502
rthumb 16.3227 -82.2894
lclavicle -1.80894e-014 3.97569e-015
lhumerus -31.504 14.8138 76.8617
lradius 16.8135
lwrist -12.0803
lhand -20.1565 -14.7418
lfingers 7.12502
lthumb 6.18873 15.1478
rfemur -23.142 6.62566 18.0081
rtibia 5.51302
rfoot -18.7202 -9.61486
rtoes -32.0555
lfemur -24.595 -8.99318 -17.567
ltibia 7.61085
lfoot -8.45104 3.24784
ltoes -35.7848
97
root 8.94466 16.3486 30.7336 -153.109 -3.05593 179.213
lowerback -29.1696 -1.4269 -5.79617
upperback -1.56171 -0.594215 -0.392683
thorax 13.6845 -0.892986 2.43277
lowerneck 3.76237 -5.04631 5.84902
upperneck -6.20805 -6.81724 -4.85715
head -3.09199 -3.4125 -2.34625
rclavicle -7.85199e-015 1.63003e-014
rhumerus -36.9148 -27.495 -75.2512
rradius 26.1709
rwrist 6.45173
rhand -9.69453 -53.6357
rfingers 7.12502
rthumb 16.2778 -82.9724
lclavicle -7.85199e-015 1.63003e-014
lhumerus -31.3311 14.2859 77.2011
lradius 17.0727
lwrist -11.5256
lhand -19.4549 -14.8026
lfingers 7.12502
lthumb 6.86605 15.0661
rfemur -23.076 6.75003 18.0113
rtibia 5.56399
rfoot -18.7295 -9.77561
rtoes -32.1187
lfemur -24.4892 -9.12469 -17.5066
ltibia 7.55169
lfoot -8.42442 3.28713
ltoes -35.1644
98
root 8.94566 16.3483 30.7362 -153.164 -3.08784 179.166
lowerback -29.084 -1.43251 -5.85519
upperback -1.56751 -0.584531 -0.404707
thorax 13.6376 -0.889806 2.45707
lowerneck 3.72806 -5.03262 5.92037
upperneck -6.21281 -6.80414 -4.94116
head -3.09408 -3.40626 -2.38906
rclavicle -8.94531e-015 -3.57812e-015
rhumerus -36.8915 -27.3046 -75.4108
rradius 26.3724
rwrist 6.35439
rhand -9.85041 -54.0639
rfingers 7.12502
rthumb 16.1277 -83.4129
lclavicle -8.94531e-015 -3.57812e-015
lhumerus -31.1866 13.6421 77.5591
lradius 17.3503
lwrist -10.8744
lhand -19.4555 -14.8448
lfingers 7.12502
lthumb 6.86543 15.0238
rfemur -23.0492 6.5891 18.0322
rtibia 5.63325
rfoot -18.7232 -9.79981
rtoes -32.8443
lfemur -24.462 -9.02167 -17.5926
ltibia 7.60969
lfoot -8.41311 3.12458
ltoes -35.0591
99
root 8.94693 16.3489 30.7366 -153.213 -3.07503 179.124
lowerback -29.055 -1.40735 -5.90853
upperback -1.57107 -0.533499 -0.423981
thorax 13.6153 -0.868925 2.48515
lowerneck 3.6804 -5.0281 5.94398
upperneck -6.14521 -6.79888 -4.98363
head -3.06491 -3.40306 -2.40928
rclavicle 9.93923e-015 -4.29375e-014
rhumerus -36.8835 -27.1255 -75.5248
rradius 26.5316
rwrist 6.25335
rhand -9.80648 -53.8065
rfingers 7.12502
rthumb 16.17 -83.152
lclavicle 9.93923e-015 -4.29375e-014
lhumerus -31.0206 13.4704 77.7247
lradius 17.459
lwrist -10.8312
lhand -19.121 -15.2986
lfingers 7.12502
lthumb 7.18839 14.5594
rfemur -22.9938 6.34057 18.0781
rtibia 5.64435
rfoot -18.6587 -9.72328
rtoes -33.6952
lfemur -24.3993 -8.90781 -17.682
ltibia 7.59241
lfoot -8.38064 3.00257
ltoes -35.4752
100
root 8.94773 16.3494 30.7347 -153.277 -3.05615 179.135
lowerback -29.0958 -1.37891 -5.88499
upperback -1.54242 -0.496068 -0.428319
thorax 13.664 -0.850909 2.48162
lowerneck 3.67169 -5.04237 5.92625
upperneck -6.17843 -6.81861 -4.94311
head -3.07293 -3.41411 -2.39139
rclavicle 3.97569e-015 -9.93923e-015
rhumerus -36.7972 -26.9785 -75.6299
rradius 26.6118
rwrist 6.14981
rhand -9.67739 -53.2326
rfingers 7.12502
rthumb 16.2943 -82.568
lclavicle 3.97569e-015 -9.93923e-015
lhumerus -30.8331 13.5168 77.8344
lradius 17.5237
lwrist -11.0759
lhand -19.5411 -15.026
lfingers 7.12502
lthumb 6.78279 14.8454
rfemur -22.8797 6.63939 18.0034
rtibia 5.55641
rfoot -18.6255 -9.8565
rtoes -32.7709
lfemur -24.2919 -9.04299 -17.637
ltibia 7.51268
lfoot -8.34228 3.12733
ltoes -35.3746
101
root 8.94726 16.3502 30.7341 -153.341 -3.12626 179.12
lowerback -29.0995 -1.39857 -5.85937
upperback -1.51045 -0.521971 -0.439863
thorax 13.7048 -0.86016 2.44552
lowerneck 3.68143 -5.04865 5.92424
upperneck -6.23228 -6.82658 -4.90259
head -3.09154 -3.41958 -2.37648
rclavicle 2.98177e-015 -3.97569e-014
rhumerus -36.6718 -26.8215 -75.7892
rradius 26.6845
rwrist 6.01617
rhand -9.67421 -52.6805
rfingers 7.12502
rthumb 16.2974 -82.0156
lclavicle 2.98177e-015 -3.97569e-014
lhumerus -30.6376 13.4222 77.9999
lradius 17.662
lwrist -11.1011
lhand -19.8449 -15.055
lfingers 7.12502
lthumb 6.48952 14.8256
rfemur -22.7309 6.88508 17.9129
rtibia 5.40547
rfoot -18.628 -9.97604
rtoes -31.8184
lfemur -24.2366 -9.17754 -17.6104
ltibia 7.50923
lfoot -8.33581 3.11197
ltoes -34.6153
102
root 8.94618 16.3507 30.7352 -153.375 -3.22872 179.049
lowerback -29.0466 -1.44163 -5.90304
upperback -1.53564 -0.569013 -0.455523
thorax 13.655 -0.88288 2.43484
lowerneck 3.65806 -5.04244 5.92056
upperneck -6.15923 -6.81332 -4.88547
head -3.06025 -3.41256 -2.37147
rclavicle 1.27222e-014 6.75868e-015
rhumerus -36.6339 -26.4323 -76.0386
rradius 26.9053
rwrist 5.67292
rhand -9.84072 -52.7379
rfingers 7.12502
rthumb 16.137 -82.0862
lclavicle 1.27222e-014 6.75868e-015
lhumerus -30.4945 13.2663 78.1867
lradius 17.8405
lwrist -11.1179
lhand -19.8329 -14.9842
lfingers 7.12502
lthumb 6.50112 14.896
rfemur -22.6411 6.56154 17.9247
rtibia 5.34177
rfoot -18.6296 -9.77767
rtoes -32.2005
lfemur -24.2335 -9.1263 -17.7126
ltibia 7.55065
lfoot -8.29822 2.92066
ltoes -34.8308
